<?xml version="1.0" encoding="UTF-8"?>
<svg width="330px" height="27px" viewBox="0 0 330 27" version="1.1" xmlns="http://www.w3.org/2000/svg" xmlns:xlink="http://www.w3.org/1999/xlink">
    <title>parts/header/period copy 3</title>
    <g id="Page-1" stroke="none" stroke-width="1" fill="none" fill-rule="evenodd">
        <g id="Artboard" transform="translate(-365.000000, -906.000000)">
            <g id="Group" transform="translate(365.000000, 901.000000)">
                <text id="IDEA" font-family="UniversLTStd-LightCn, Univers LT Std" font-size="11" font-style="condensed" font-weight="300" letter-spacing="0.458333333" fill="#000000">
                    <tspan x="7" y="13">IDEA</tspan>
                </text>
                <g id="Group-4" transform="translate(0.000000, 16.000000)" stroke="#000000">
                    <rect id="Rectangle-Copy-3" x="0.5" y="0.5" width="329" height="15"></rect>
                    <g id="Group-3" transform="translate(0.000000, 0.000000)" stroke-linecap="square">
                        <line x1="0.5" y1="0.5" x2="0.5" y2="15.5" id="Line-6"></line>
                        <line x1="10.5" y1="0.5" x2="10.5" y2="15.5" id="Line-6-Copy"></line>
                        <line x1="20.5" y1="0.5" x2="20.5" y2="15.5" id="Line-6-Copy-2"></line>
                        <line x1="30.5" y1="0.5" x2="30.5" y2="15.5" id="Line-6-Copy-3"></line>
                        <line x1="40.5" y1="0.5" x2="40.5" y2="15.5" id="Line-6-Copy-4"></line>
                        <line x1="50.5" y1="0.5" x2="50.5" y2="15.5" id="Line-6-Copy-5"></line>
                        <line x1="60.5" y1="0.5" x2="60.5" y2="15.5" id="Line-6-Copy-6"></line>
                        <line x1="70.5" y1="0.5" x2="70.5" y2="15.5" id="Line-6-Copy-7"></line>
                        <line x1="80.5" y1="0.5" x2="80.5" y2="15.5" id="Line-6-Copy-8"></line>
                        <line x1="90.5" y1="0.5" x2="90.5" y2="15.5" id="Line-6-Copy-9"></line>
                        <line x1="100.5" y1="0.5" x2="100.5" y2="15.5" id="Line-6-Copy-10"></line>
                        <line x1="110.5" y1="0.5" x2="110.5" y2="15.5" id="Line-6-Copy-11"></line>
                        <line x1="120.5" y1="0.5" x2="120.5" y2="15.5" id="Line-6-Copy-12"></line>
                        <line x1="130.5" y1="0.5" x2="130.5" y2="15.5" id="Line-6-Copy-13"></line>
                        <line x1="140.5" y1="0.5" x2="140.5" y2="15.5" id="Line-6-Copy-14"></line>
                        <line x1="150.5" y1="0.5" x2="150.5" y2="15.5" id="Line-6-Copy-15"></line>
                        <line x1="160.5" y1="0.5" x2="160.5" y2="15.5" id="Line-6-Copy-16"></line>
                        <line x1="170.5" y1="0.5" x2="170.5" y2="15.5" id="Line-6-Copy-17"></line>
                        <line x1="180.5" y1="0.5" x2="180.5" y2="15.5" id="Line-6-Copy-18"></line>
                        <line x1="190.5" y1="0.5" x2="190.5" y2="15.5" id="Line-6-Copy-19"></line>
                        <line x1="200.5" y1="0.5" x2="200.5" y2="15.5" id="Line-6-Copy-20"></line>
                        <line x1="210.5" y1="0.5" x2="210.5" y2="15.5" id="Line-6-Copy-21"></line>
                        <line x1="220.5" y1="0.5" x2="220.5" y2="15.5" id="Line-6-Copy-22"></line>
                        <line x1="230.5" y1="0.5" x2="230.5" y2="15.5" id="Line-6-Copy-23"></line>
                        <line x1="240.5" y1="0.5" x2="240.5" y2="15.5" id="Line-6-Copy-24"></line>
                        <line x1="250.5" y1="0.5" x2="250.5" y2="15.5" id="Line-6-Copy-25"></line>
                        <line x1="260.5" y1="0.5" x2="260.5" y2="15.5" id="Line-6-Copy-26"></line>
                        <line x1="270.5" y1="0.5" x2="270.5" y2="15.5" id="Line-6-Copy-27"></line>
                        <line x1="280.5" y1="0.5" x2="280.5" y2="15.5" id="Line-6-Copy-28"></line>
                        <line x1="290.5" y1="0.5" x2="290.5" y2="15.5" id="Line-6-Copy-28"></line>
                        <line x1="300.5" y1="0.5" x2="300.5" y2="15.5" id="Line-6-Copy-28"></line>
                        <line x1="310.5" y1="0.5" x2="310.5" y2="15.5" id="Line-6-Copy-28"></line>
                        <line x1="320.5" y1="0.5" x2="320.5" y2="15.5" id="Line-6-Copy-28"></line>
                    </g>
                </g>
            </g>
        </g>
    </g>
</svg>